<?xml version="1.0" encoding="UTF-8" standalone="no"?>
<!-- Created with Inkscape (http://www.inkscape.org/) -->
<svg
   xmlns:svg="http://www.w3.org/2000/svg"
   xmlns="http://www.w3.org/2000/svg"
   version="1.0"
   width="531.49603"
   height="597.90302"
   id="svg23104">
  <defs
     id="defs23106" />
  <g
     transform="translate(-5257.632,5202.9261)"
     id="layer1">
    <g
       transform="matrix(8.03531,0,0,8.03531,5006.8244,-5393.5951)"
       id="g2724">
      <path
         d="M 31.213184,98.138339 L 97.358244,98.138339 L 97.358244,23.728889 L 31.213184,23.728889 L 31.213184,98.138339 z "
         style="fill:#ffffff;fill-rule:nonzero;stroke:none"
         id="path8" />
      <path
         d="M 32.428094,24.958799 L 32.428094,96.923429 L 96.143334,96.923429 L 96.143334,24.958799 L 32.428094,24.958799 M 94.913434,95.678519 L 33.643004,95.678519 L 33.643004,69.115499 C 36.552784,75.834999 52.436594,81.189599 71.050214,81.189599 C 79.224604,81.189599 88.643894,79.464729 94.913434,77.754859 L 94.913434,95.678519 M 58.466144,58.421299 C 58.466144,60.581139 56.006334,62.485999 53.186544,62.485999 C 51.041704,62.485999 49.571814,61.451069 49.571814,59.996179 C 49.571814,57.866339 52.091624,56.096469 55.061404,56.096469 C 57.101254,56.096469 58.466144,57.026399 58.466144,58.421299 M 63.340784,66.760679 L 71.605164,60.176169 L 70.270264,66.760679 L 63.340784,66.760679 M 80.529504,52.931709 L 74.634944,52.931709 L 65.500624,60.206169 C 65.755604,59.531219 65.890594,58.826269 65.890594,58.091319 C 65.890594,54.626579 62.590844,52.226759 57.881194,52.226759 C 56.621284,52.226759 55.481374,52.361749 54.431454,52.616729 L 54.326454,52.556739 L 62.800824,44.217359 C 77.784704,45.162289 88.238924,49.121989 87.983944,53.966629 C 87.833954,56.786419 84.264224,60.791119 78.159674,63.115949 L 80.529504,52.931709 M 81.159454,66.790679 L 80.469504,70.720379 L 76.614794,70.720379 L 75.474884,75.954989 L 68.095434,75.954989 L 69.250344,70.720379 L 56.081324,70.675389 L 57.086254,66.925669 L 58.226164,66.010729 C 56.651284,66.460699 54.881414,66.715679 53.021554,66.715679 C 47.037004,66.715679 42.897314,64.345859 42.252354,60.656129 C 41.502414,61.796049 41.112444,62.995959 41.112444,64.225869 C 41.112444,71.800299 55.991334,77.949839 74.349964,77.949839 C 81.339444,77.949839 88.748884,76.734929 94.913434,75.040059 L 94.913434,75.670009 C 88.418914,77.739859 79.509574,79.299739 71.200194,79.299739 C 50.921714,79.299739 34.332944,72.655239 34.332944,65.095799 C 34.332944,61.721049 37.602704,58.646279 43.032304,56.261459 C 43.782244,54.851569 45.042154,53.351679 46.977004,51.491819 L 54.686434,44.007379 C 46.407044,44.112369 39.012604,45.447269 33.792984,47.202139 L 33.792984,46.572179 C 40.317504,44.502339 50.531744,42.837459 61.570914,43.047449 C 80.859474,43.422419 95.543384,48.462039 95.258404,53.786649 C 95.078414,57.281389 88.253924,61.856039 77.994694,63.820899 L 77.289744,66.790679 L 81.159454,66.790679 M 40.272504,28.678519 L 43.722244,28.678519 L 49.016854,40.587629 L 45.807094,40.587629 L 44.832164,38.217809 L 39.507564,38.217809 L 38.622624,40.587629 L 35.487864,40.587629 L 40.272504,28.678519 M 50.381754,28.678519 L 52.961554,28.678519 L 56.786274,33.088189 L 60.625984,28.678519 L 63.205794,28.678519 L 63.205794,40.587629 L 60.221014,40.587629 L 60.221014,33.148189 L 57.011254,36.882909 L 56.561294,36.882909 L 53.351534,33.148189 L 53.351534,40.587629 L 50.381754,40.587629 L 50.381754,28.678519 M 65.815604,28.678519 L 71.065204,28.678519 C 75.414884,28.678519 77.649714,31.378319 77.649714,34.648069 C 77.649714,38.052819 75.489874,40.587629 70.735234,40.587629 L 65.815604,40.587629 L 65.815604,28.678519 M 43.962234,36.132959 L 40.302504,36.132959 L 42.042374,31.528309 L 43.962234,36.132959 M 70.720234,38.397789 L 68.785374,38.397789 L 68.785374,30.868359 L 70.675234,30.868359 C 73.495024,30.868359 74.589944,32.593229 74.589944,34.633069 C 74.589944,36.372939 73.705014,38.397789 70.720234,38.397789"
         style="fill:#181715;fill-rule:nonzero;stroke:none"
         id="path10" />
      <path
         d="M 92.753594,28.633519 L 80.439504,28.633519 L 83.859254,32.053269 L 89.333844,32.053269 L 89.333844,37.527859 L 92.753594,40.947599 L 92.753594,28.633519"
         style="fill:#008b56;fill-rule:nonzero;stroke:none"
         id="path12" />
      <path
         d="M 83.859254,37.527859 L 83.859254,32.608229 L 80.439504,36.027969 L 80.439504,40.947599 L 85.359144,40.947599 L 88.778884,37.527859 L 83.859254,37.527859"
         style="fill:#008b56;fill-rule:nonzero;stroke:none"
         id="path14" />
      <path
         d="M 94.913434,95.678519 L 33.643004,95.678519 L 33.643004,69.115499 C 36.552784,75.834999 52.436594,81.189599 71.050214,81.189599 C 79.224604,81.189599 88.643894,79.464729 94.913434,77.754859 L 94.913434,95.678519 M 42.717324,88.404059 L 39.762544,88.404059 L 41.172434,84.669339 L 42.717324,88.404059 M 46.797014,91.988799 L 42.522334,82.374509 L 39.747544,82.374509 L 35.862834,91.988799 L 38.397644,91.988799 L 39.132594,90.083939 L 43.422274,90.083939 L 44.217214,91.988799 L 46.797014,91.988799 M 50.201764,92.123789 C 50.831714,92.123789 51.371674,92.003789 52.091624,91.703819 L 52.091624,90.218929 C 51.536664,90.503909 51.146694,90.608899 50.726724,90.608899 C 50.096774,90.608899 49.721804,90.188929 49.721804,89.573979 L 49.721804,86.889179 L 52.091624,86.889179 L 52.091624,85.479279 L 49.721804,85.479279 L 49.721804,83.439429 L 49.466824,83.439429 L 46.737024,86.499209 L 46.737024,86.889179 L 47.666954,86.889179 L 47.666954,89.678969 C 47.666954,91.493829 48.851864,92.123789 50.201764,92.123789 M 57.926184,91.988799 L 59.951034,91.988799 L 59.951034,87.849099 C 59.951034,86.094239 58.751124,85.359289 57.581214,85.359289 C 56.771274,85.359289 56.111324,85.689269 55.511364,86.454209 L 55.496374,86.454209 L 55.496374,82.374509 L 53.456524,82.374509 L 53.456524,91.988799 L 55.496374,91.988799 L 55.496374,87.849099 C 55.961334,87.159159 56.381304,86.859179 56.861264,86.859179 C 57.506224,86.859179 57.926184,87.309139 57.926184,88.269069 L 57.926184,91.988799 M 61.510924,91.988799 L 63.550764,91.988799 L 63.550764,82.374509 L 61.510924,82.374509 L 61.510924,91.988799 M 70.015284,88.689039 C 70.015284,90.113939 69.520324,90.908879 68.560394,90.908879 C 67.780454,90.908879 67.060504,90.413909 67.060504,88.734039 C 67.060504,87.264149 67.660464,86.574199 68.560394,86.574199 C 69.580314,86.574199 70.015284,87.429139 70.015284,88.689039 M 72.205124,88.749039 C 72.205124,86.244219 70.150274,85.359289 68.560394,85.359289 C 66.640534,85.359289 64.870674,86.514199 64.870674,88.734039 C 64.870674,90.773889 66.430554,92.123789 68.560394,92.123789 C 69.985284,92.123789 72.205124,91.328839 72.205124,88.749039 M 78.054684,91.988799 L 80.109534,91.988799 L 80.109534,87.849099 C 80.109534,85.944249 78.744634,85.359289 77.739714,85.359289 C 76.899774,85.359289 76.269824,85.674269 75.624864,86.409209 L 75.624864,85.479279 L 73.585024,85.479279 L 73.585024,91.988799 L 75.624864,91.988799 L 75.624864,87.804109 C 76.149824,86.994169 76.539804,86.724189 77.049764,86.724189 C 77.634714,86.724189 78.054684,87.114159 78.054684,88.029089 L 78.054684,91.988799 M 83.334294,87.264149 L 83.574274,87.264149 L 83.574274,85.584269 L 83.349294,85.584269 L 82.779334,86.274219 L 82.239374,85.584269 L 81.999394,85.584269 L 81.999394,87.264149 L 82.239374,87.264149 L 82.239374,85.959249 L 82.764334,86.619199 L 82.809334,86.619199 L 83.319294,85.959249 L 83.334294,85.959249 L 83.334294,87.264149 M 81.204454,85.809259 L 81.789404,85.809259 L 81.789404,85.584269 L 80.379514,85.584269 L 80.379514,85.809259 L 80.964474,85.809259 L 80.964474,87.264149 L 81.204454,87.264149 L 81.204454,85.809259"
         style="fill:#da6a10;fill-rule:nonzero;stroke:none"
         id="path16" />
    </g>
  </g>
</svg>
