<?xml version="1.0" encoding="UTF-8" standalone="no"?>
<!-- Created with Inkscape (http://www.inkscape.org/) -->

<svg
   xmlns:svg="http://www.w3.org/2000/svg"
   xmlns="http://www.w3.org/2000/svg"
   version="1.1"
   width="291.785"
   height="279.29376"
   id="svg2">
  <defs
     id="defs4" />
  <g
     transform="matrix(0.90968201,0,0,0.90968201,13.176717,12.612624)"
     id="g2944">
    <path
       d="m 227.1075,267.07597 3.36125,0 c 2.17375,0 3.5375,-0.082 4.07875,-0.25243 0.5425,-0.16754 0.965,-0.45604 1.27125,-0.86717 0.30625,-0.41262 0.46,-0.92537 0.46,-1.5415 0,-0.691 -0.2,-1.24862 -0.60375,-1.67487 -0.405,-0.42375 -0.975,-0.69138 -1.7125,-0.80513 -0.36625,-0.0435 -1.4725,-0.0689 -3.31,-0.0689 l -3.545,0 0,5.20997 z m -4.54,11.85254 0,-20.53851 9.5575,0 c 2.4025,0 4.1475,0.186 5.2375,0.55512 1.0875,0.36963 1.96,1.02588 2.615,1.96875 0.6525,0.94338 0.98125,2.02 0.98125,3.23638 0,1.541 -0.4975,2.81097 -1.4875,3.81489 -0.995,1.00488 -2.4775,1.63965 -4.44875,1.90233 0.98125,0.51857 1.79,1.0962 2.42875,1.72023 0.64125,0.62744 1.50125,1.73584 2.585,3.33495 l 2.745,4.00586 -5.42625,0 -3.2825,-4.46729 c -1.165,-1.59765 -1.96375,-2.60643 -2.395,-3.02001 -0.42875,-0.41749 -0.88375,-0.70117 -1.3625,-0.85351 -0.4825,-0.15528 -1.245,-0.23389 -2.28375,-0.23389 l -0.92375,0 0,8.5747 -4.54,0 0,0 z M 201.875,268.64629 c 0,2.32471 0.59,4.08886 1.76375,5.28613 1.17875,1.20019 2.67,1.7998 4.48125,1.7998 1.81,0 3.29375,-0.59375 4.455,-1.78466 1.15875,-1.18995 1.73875,-2.97656 1.73875,-5.35742 0,-2.35402 -0.56375,-4.11139 -1.695,-5.26902 -1.12625,-1.15625 -2.63125,-1.73637 -4.49875,-1.73637 -1.87375,0 -3.38125,0.584 -4.525,1.75787 -1.14625,1.17375 -1.72,2.93988 -1.72,5.30367 l 0,0 z m -4.675,0.14111 c 0,-2.09228 0.34125,-3.84865 1.025,-5.26853 0.51375,-1.04787 1.20875,-1.9825 2.09625,-2.81637 0.88375,-0.83263 1.85375,-1.44738 2.90625,-1.85013 1.40125,-0.541 3.015,-0.81012 4.845,-0.81012 3.3125,0 5.96375,0.9365 7.955,2.8155 1.98625,1.875 2.98,4.48487 2.98,7.83102 0,3.31494 -0.98625,5.90723 -2.96,7.7788 -1.9725,1.87598 -4.61,2.81104 -7.9125,2.81104 -3.345,0 -6.00375,-0.93115 -7.97375,-2.79736 C 198.185,274.62139 197.2,272.05497 197.2,268.7874 l 0,0 z m -21.18375,3.45899 4.4175,-0.39258 c 0.2675,1.35351 0.80625,2.34863 1.6175,2.98241 0.81375,0.6338 1.9125,0.95362 3.29,0.95362 1.46125,0 2.565,-0.28369 3.30625,-0.84473 0.7425,-0.56884 1.11125,-1.229 1.11125,-1.98535 0,-0.4834 -0.15625,-0.8999 -0.46625,-1.23974 -0.31375,-0.34131 -0.85625,-0.63867 -1.63375,-0.89013 -0.53375,-0.16749 -1.74375,-0.46485 -3.635,-0.89503 -2.435,-0.5498 -4.14375,-1.22851 -5.12375,-2.03125 -1.37875,-1.12836 -2.06875,-2.50736 -2.06875,-4.13474 0,-1.0415 0.325,-2.0225 0.9725,-2.93412 0.6525,-0.91113 1.58625,-1.602 2.8075,-2.07863 1.22125,-0.476 2.69625,-0.71387 4.42375,-0.71387 2.82375,0 4.94875,0.564 6.37375,1.69287 1.425,1.13238 2.175,2.63875 2.245,4.52588 l -4.53875,0.18262 c -0.1925,-1.05512 -0.61125,-1.8135 -1.24875,-2.27875 -0.63875,-0.461 -1.5975,-0.691 -2.8775,-0.691 -1.31875,0 -2.35125,0.24713 -3.0975,0.74225 -0.48,0.31488 -0.71875,0.74363 -0.71875,1.2725 0,0.48875 0.2225,0.90525 0.67125,1.2475 0.57375,0.439 1.96375,0.8975 4.17375,1.3765 2.20625,0.476 3.84,0.96628 4.89875,1.47508 1.06125,0.51122 1.88625,1.20605 2.48625,2.08837 0.5975,0.88135 0.895,1.97265 0.895,3.27002 0,1.1753 -0.3575,2.27783 -1.07,3.30616 -0.71625,1.02539 -1.72875,1.79004 -3.04,2.29248 -1.3075,0.49658 -2.9375,0.74902 -4.8925,0.74902 -2.8425,0 -5.0275,-0.60107 -6.54875,-1.80128 -1.5225,-1.20018 -2.43125,-2.95116 -2.73,-5.24608 l 0,0 z m -20.95,0 4.41625,-0.39258 c 0.2675,1.35351 0.805,2.34863 1.6175,2.98241 0.8125,0.6338 1.91375,0.95362 3.29,0.95362 1.46125,0 2.565,-0.28369 3.30625,-0.84473 0.74125,-0.56884 1.11125,-1.229 1.11125,-1.98535 0,-0.4834 -0.15625,-0.8999 -0.46625,-1.23974 -0.315,-0.34131 -0.85625,-0.63867 -1.6325,-0.89013 -0.535,-0.16749 -1.745,-0.46485 -3.6375,-0.89503 -2.435,-0.5498 -4.14125,-1.22851 -5.1225,-2.03125 -1.37875,-1.12836 -2.07,-2.50736 -2.07,-4.13474 0,-1.0415 0.32625,-2.0225 0.9725,-2.93412 0.65375,-0.91113 1.58625,-1.602 2.8075,-2.07863 1.2225,-0.476 2.6975,-0.71387 4.42625,-0.71387 2.8225,0 4.94625,0.564 6.3725,1.69287 1.425,1.13238 2.175,2.63875 2.24375,4.52588 l -4.5375,0.18262 c -0.1925,-1.05512 -0.6125,-1.8135 -1.2475,-2.27875 -0.64125,-0.461 -1.59875,-0.691 -2.87875,-0.691 -1.31875,0 -2.3525,0.24713 -3.09875,0.74225 -0.47875,0.31488 -0.7175,0.74363 -0.7175,1.2725 0,0.48875 0.2225,0.90525 0.67125,1.2475 0.57125,0.439 1.96375,0.8975 4.17375,1.3765 2.20625,0.476 3.84,0.96628 4.9,1.47508 1.06,0.51122 1.88375,1.20605 2.485,2.08837 0.5975,0.88135 0.895,1.97265 0.895,3.27002 0,1.1753 -0.35625,2.27783 -1.07125,3.30616 -0.715,1.02539 -1.7275,1.79004 -3.03875,2.29248 -1.30875,0.49658 -2.93625,0.74902 -4.8925,0.74902 -2.8425,0 -5.02625,-0.60107 -6.54875,-1.80128 -1.5225,-1.20018 -2.43125,-2.95116 -2.72875,-5.24608 l 0,0 z m -19.80125,6.68212 0,-20.53851 16.67125,0 0,3.476 -12.1325,0 0,4.55425 11.28875,0 0,3.45992 -11.28875,0 0,5.58594 12.56375,0 0,3.4624 -17.1025,0 0,0 z m -8.29625,-7.5498 4.4,1.27393 c -0.67375,2.24121 -1.79375,3.90381 -3.36375,4.99462 -1.5725,1.08643 -3.56163,1.63135 -5.97575,1.63135 -2.98488,0 -5.43937,-0.93115 -7.36225,-2.79736 -1.92037,-1.85986 -2.88288,-4.40771 -2.88288,-7.64111 0,-3.41889 0.96688,-6.07277 2.899,-7.96139 1.93063,-1.89363 4.47563,-2.8365 7.624,-2.8365 2.74913,0 4.98413,0.74125 6.70288,2.22662 1.02125,0.87838 1.78625,2.13863 2.3,3.78363 l -4.495,0.9785 c -0.26625,-1.06488 -0.82,-1.90475 -1.665,-2.52 -0.84288,-0.61713 -1.86875,-0.92625 -3.07475,-0.92625 -1.66363,0 -3.01913,0.54537 -4.05575,1.64012 -1.0395,1.09375 -1.5585,2.86138 -1.5585,5.31155 0,2.59473 0.51413,4.44239 1.53462,5.54347 1.022,1.10253 2.35201,1.65233 3.98975,1.65233 1.20601,0 2.24163,-0.34716 3.11463,-1.0498 0.86625,-0.69873 1.4925,-1.79981 1.86875,-3.30371 l 0,0 z m -35.0635,-2.73242 c 0,2.32471 0.58837,4.08886 1.76375,5.28613 1.17762,1.20019 2.67087,1.7998 4.48037,1.7998 1.80963,0 3.2935,-0.59375 4.45613,-1.78466 1.15762,-1.18995 1.73825,-2.97656 1.73825,-5.35742 0,-2.35402 -0.565,-4.11139 -1.69575,-5.26902 -1.1255,-1.15625 -2.62988,-1.73637 -4.49863,-1.73637 -1.873,0 -3.38037,0.584 -4.52387,1.75787 -1.147,1.17375 -1.72025,2.93988 -1.72025,5.30367 l 0,0 z m -4.67575,0.14111 c 0,-2.09228 0.34175,-3.84865 1.02487,-5.26853 0.51375,-1.04787 1.21,-1.9825 2.09625,-2.81637 0.88475,-0.83263 1.85301,-1.44738 2.90675,-1.85013 1.40088,-0.541 3.01463,-0.81012 4.84563,-0.81012 3.3125,0 5.96287,0.9365 7.95412,2.8155 1.98638,1.875 2.979,4.48487 2.979,7.83102 0,3.31494 -0.98487,5.90723 -2.9605,7.7788 -1.97012,1.87598 -4.61024,2.81104 -7.91112,2.81104 -3.34562,0 -6.00338,-0.93115 -7.97413,-2.79736 -1.97549,-1.85986 -2.96087,-4.42628 -2.96087,-7.69385 l 0,0 z m -17.21,-1.71143 3.36187,0 c 2.17525,0 3.53713,-0.082 4.07963,-0.25243 0.5415,-0.16754 0.96525,-0.45604 1.27187,-0.86717 0.30625,-0.41262 0.459,-0.92537 0.459,-1.5415 0,-0.691 -0.19925,-1.24862 -0.6035,-1.67487 -0.40475,-0.42375 -0.97362,-0.69138 -1.71337,-0.80513 -0.36375,-0.0435 -1.47163,-0.0689 -3.30963,-0.0689 l -3.54587,0 0,5.20997 z m -4.539,11.85254 0,-20.53851 9.55762,0 c 2.40188,0 4.1455,0.186 5.23775,0.55512 1.08738,0.36963 1.95851,1.02588 2.61425,1.96875 0.65188,0.94338 0.982,2.02 0.982,3.23638 0,1.541 -0.49662,2.81097 -1.48837,3.81489 -0.99363,1.00488 -2.478,1.63965 -4.44913,1.90233 0.98288,0.51857 1.791,1.0962 2.43163,1.72023 0.63912,0.62744 1.499,1.73584 2.583,3.33495 l 2.74462,4.00586 -5.42487,0 -3.28263,-4.46729 c -1.1665,-1.59765 -1.96387,-2.60643 -2.3965,-3.02001 -0.42725,-0.41749 -0.88287,-0.70117 -1.36137,-0.85351 -0.48288,-0.15528 -1.24412,-0.23389 -2.28463,-0.23389 l -0.92437,0 0,8.5747 -4.539,0 0,0 z M 49.05325,261.866 l 0,5.82667 2.48487,0 c 1.792,0 2.98975,-0.10645 3.58888,-0.32275 0.6045,-0.21485 1.07512,-0.54736 1.41837,-1.0088 0.34425,-0.4575 0.51425,-0.98875 0.51425,-1.59475 0,-0.75 -0.24025,-1.36275 -0.71975,-1.85012 -0.482,-0.48625 -1.09037,-0.789 -1.82575,-0.91113 -0.541,-0.0951 -1.62837,-0.13912 -3.267,-0.13912 l -2.19387,0 0,0 z m -4.53913,17.06251 0,-20.53851 7.28763,0 c 2.76075,0 4.55962,0.104 5.3985,0.3075 1.2885,0.31012 2.36425,0.98 3.23625,2.01225 0.86725,1.03425 1.30325,2.36375 1.30325,3.999 0,1.26125 -0.252,2.32132 -0.75438,3.18119 -0.4985,0.85742 -1.13425,1.53516 -1.90975,2.02246 -0.77087,0.49121 -1.55362,0.81641 -2.35437,0.9751 -1.084,0.19385 -2.65088,0.29492 -4.70813,0.29492 l -2.95987,0 0,7.74609 -4.53913,0 0,0 z m 225.72338,-49.11226 0,13.6 3.39375,0 c 1.2675,0 2.1825,-0.0639 2.745,-0.19525 0.73375,-0.166 1.34625,-0.45213 1.8325,-0.8535 0.48375,-0.40138 0.88,-1.0625 1.18625,-1.98388 0.30875,-0.9175 0.4625,-2.17487 0.4625,-3.75887 0,-1.58738 -0.15375,-2.80713 -0.4625,-3.65713 -0.30625,-0.85012 -0.73375,-1.51275 -1.2875,-1.99025 -0.55125,-0.47362 -1.25375,-0.79587 -2.10125,-0.96337 -0.6325,-0.13388 -1.8775,-0.19775 -3.7275,-0.19775 l -2.04125,0 0,0 z m -4.5375,-3.47613 8.295,0 c 1.87375,0 3.2975,0.13375 4.28,0.395 1.31875,0.355 2.45125,0.98588 3.39375,1.88963 0.9375,0.90625 1.6525,2.01525 2.14375,3.32775 0.49,1.3125 0.7375,2.92862 0.7375,4.854 0,1.69087 -0.2325,3.146 -0.6925,4.36862 -0.56,1.4975 -1.365,2.705 -2.405,3.63138 -0.79,0.69725 -1.85375,1.247 -3.19375,1.63862 -1,0.29 -2.34,0.43363 -4.01625,0.43363 l -8.5425,0 0,-20.53863 z m -20.93625,20.53863 0,-20.53863 16.67125,0 0,3.47613 -12.1325,0 0,4.55362 11.28875,0 0,3.4615 -11.28875,0 0,5.58488 12.565,0 0,3.4625 -17.10375,0 0,0 z m -8.29625,-7.54988 4.40125,1.2735 c -0.675,2.24113 -1.79375,3.90525 -3.36625,4.9965 -1.57,1.086 -3.56,1.63088 -5.97375,1.63088 -2.985,0 -5.43875,-0.93213 -7.3625,-2.79738 -1.92,-1.86125 -2.8825,-4.40712 -2.8825,-7.6425 0,-3.4175 0.965,-6.06987 2.8975,-7.961 1.9325,-1.894 4.47625,-2.83637 7.625,-2.83637 2.75,0 4.9825,0.74262 6.7025,2.2275 1.0225,0.87887 1.78625,2.13775 2.3,3.78225 l -4.495,0.979 c -0.26625,-1.064 -0.82125,-1.90375 -1.665,-2.52 C 233.805,229.8435 232.78,229.535 231.575,229.535 c -1.66375,0 -3.01875,0.54487 -4.05625,1.64012 -1.04125,1.09375 -1.5575,2.86125 -1.5575,5.311 0,2.59625 0.51375,4.44238 1.53375,5.544 1.02125,1.1035 2.3525,1.65225 3.99,1.65225 1.205,0 2.24125,-0.34762 3.1125,-1.04975 0.86875,-0.70025 1.4925,-1.80025 1.87,-3.30375 l 0,0 z m -37.0225,7.54988 0,-20.53863 4.41625,0 9.20375,13.71725 0,-13.71725 4.2175,0 0,20.53863 -4.555,0 -9.06625,-13.39013 0,13.39013 -4.21625,0 0,0 z m -10.81375,-8.1275 -3.09625,-7.62113 -3.03625,7.62113 6.1325,0 0,0 z m 8.35875,8.1275 -4.94,0 -1.96125,-4.666 -8.98875,0 -1.8525,4.666 -4.8175,0 8.75625,-20.53863 4.80125,0 9.0025,20.53863 0,0 z m -42.9425,0 0,-20.53863 4.53875,0 0,8.0825 8.8975,0 0,-8.0825 4.53875,0 0,20.53863 -4.53875,0 0,-8.98 -8.8975,0 0,8.98 -4.53875,0 0,0 z m -22.6525,0 0,-20.53863 4.4175,0 9.20375,13.71725 0,-13.71725 4.2175,0 0,20.53863 -4.55375,0 -9.0675,-13.39013 0,13.39013 -4.2175,0 0,0 z m -20.997,0 0,-20.53863 16.672,0 0,3.47613 -12.132,0 0,4.55362 11.287,0 0,3.4615 -11.287,0 0,5.58488 12.56325,0 0,3.4625 -17.10325,0 0,0 z m -18.59288,-14.85888 0,-9.23975 3.05575,0 1.83788,6.30363 1.81537,-6.30363 3.0645,0 0,9.23975 -1.898,0 0,-7.275 -2.01125,7.275 -1.96375,0 -2.0035,-7.275 0,7.275 -1.897,0 0,0 z m -6.32662,0 0,-7.67725 -3.00288,0 0,-1.5625 8.039,0 0,1.5625 -2.99312,0 0,7.67725 -2.043,0 0,0 z m -25.354,14.85888 7.68463,-10.71638 -6.96201,-9.82225 5.30525,0 4.51125,6.59963 4.417,-6.59963 5.25725,0 -6.99312,9.9775 7.68313,10.56113 -5.47276,0 -4.98625,-7.10113 -4.9985,7.10113 -5.44587,0 0,0 z m -23.94288,0 0,-20.53863 6.79638,0 4.08012,14.01225 4.03313,-14.01225 6.81162,0 0,20.53863 -4.22075,0 0,-16.166 -4.4605,16.166 -4.3745,0 -4.44475,-16.166 0,16.166 -4.22075,0 0,0 z m -26.16453,0 0,-20.53863 6.79591,0 4.08012,14.01225 4.03313,-14.01225 6.8115,0 0,20.53863 -4.22113,0 0,-16.166 -4.46,16.166 -4.3745,0 -4.44525,-16.166 0,16.166 -4.21978,0 0,0"
       id="path3462"
       style="fill:#231f20;fill-opacity:1;fill-rule:evenodd;stroke:none" />
    <path
       d="m 176.6975,4.91625 c 5.0225,0 9.34875,0.47375 12.97625,1.40375 3.615,0.945 6.93125,2.43625 9.96,4.47375 4.6125,3.1075 7.2475,6.30875 9.85,11.13375 1.43375,2.65375 2.11,8.40375 2.11,14.26875 0,5 -1.73,8.81 -4.375,13.6475 -1.15875,2.12 -3.36,4.58375 -7.96875,8.38375 -2.7675,2.28375 -5.31375,3.915 -8.965,4.915 -2.5975,0.71 -8.0025,1.4025 -13,1.4025 L 151.66,64.38875 151.666,4.76 l 25.03125,0.15625 0,0 z m -3.46875,11.38625 -5.41625,0.13 0,37.0575 6.14625,0 c 8.4025,0 12.09875,0.2775 16.77,-4.27125 3.95875,-3.85375 5.9375,-7.39625 5.73,-15.10375 -0.26125,-9.685 -5.52125,-12.9175 -9.0625,-15.4175 0,0 -2.6725,-2.29125 -11.14625,-2.29125 M 74.0625,4.74 l 15.15625,0 17.5,22.03125 L 123.125,4.74 l 15.15625,0 -0.0525,59.6875 -15.10375,0 0,-37.5 -16.40625,20.3125 -17.5,-20.15625 0,37.34375 -15.3125,0 L 74.0625,4.74 z M 0,64.58375 23.75,4.89625 l 17.1875,0 26.5625,59.53125 -17.03125,0 -4.21875,-11.09375 -26.40625,0 -4.53125,11.25 -15.3125,0 z M 41.875,40.99 32.65875,17.92875 24.84375,40.99 l 17.03125,0"
       id="path3464"
       style="fill:#231f20;fill-opacity:1;fill-rule:evenodd;stroke:none" />
    <path
       d="m 237.89125,45.83375 28.4625,-0.0788 -19.47875,19.245 -27.47375,0 0,-26.22375 18.49,-18.5425 0,25.6 z M 285.235,0 l 0,65 -18.8025,-19.16625 0,-25.625 -28.54125,0.025 L 219.40125,0 285.235,0"
       id="path3466"
       style="fill:#009a68;fill-opacity:1;fill-rule:evenodd;stroke:none" />
    <path
       d="m 5,198.6975 42.084,0 0,-52.91625 42.13475,53.33375 55.20875,0 -45.2605,-55.4175 41.24925,-54.16625 -54.16625,0 -39.166,53.75 0,-53.75 L 4.5835,89.115 5,198.6975"
       id="path3468"
       style="fill:#231f20;fill-opacity:1;fill-rule:evenodd;stroke:none" />
    <path
       d="m 273.95875,195.87475 0,-7.3495 2.48375,0 1.4925,5.01112 1.47375,-5.01112 2.4925,0 0,7.3495 -1.54125,0 0,-5.787 -1.6325,5.787 -1.6,0 -1.6275,-5.787 0,5.787 -1.54125,0 0,0 z m -5.16625,0 0,-6.10838 -2.43875,0 0,-1.24112 6.53125,0 0,1.24112 -2.435,0 0,6.10838 -1.6575,0 0,0"
       id="path3470"
       style="fill:#ffffff;fill-opacity:1;fill-rule:evenodd;stroke:none" />
    <path
       d="m 286.89375,187.33775 -2.355,0 -1.38625,6.3295 -0.0225,0 -1.41,-6.3295 -2.375,0 0,8.02975 1.52,0 0,-6.7115 0.02,0 1.4225,6.7115 1.59375,0 1.45,-6.7115 0.0225,0 0,6.7115 1.52,0 0,-8.02975 z m -8.43375,0 -6.3325,0 0,1.42087 2.35125,0 0,6.60888 1.625,0 0,-6.60888 2.35625,0 0,-1.42087 z m 13.325,-98.61275 0,110.56625 -52.37375,0 c 20.225,-3.705 37.53625,-14.02138 37.53625,-37.34375 0,-24.52125 -19.31,-35.24875 -41.84,-35.24875 -15.785,0 -25.2875,4.29125 -35.09375,13.18 0,-23.9075 3.9825,-33.7175 18.08375,-33.7175 3.9825,0 7.04875,1.07375 9.19625,3.065 2.145,1.99375 3.37,5.05875 3.37,9.195 l 42.2975,0 c 0,-17.53375 -12.895,-26.59625 -32.34125,-29.69625 l 51.165,0 z m -57.135,75.06237 c 0,-12.56737 -7.51,-17.47237 -15.94,-17.47237 -8.42875,0 -15.93875,4.905 -15.93875,17.47237 0,12.72025 7.51,17.624 15.93875,17.624 8.58375,0 15.94,-6.28262 15.94,-17.624 z m -36.1,35.50388 -54.9875,0 0,-110.56625 60.60875,0 c -30.29375,4.4425 -45.53875,21.035 -45.53875,55.13875 0,35.241 15.43875,50.64725 39.9175,55.4275"
       id="path3472"
       style="fill:#009a68;fill-opacity:1;fill-rule:nonzero;stroke:none" />
  </g>
</svg>
